<svg xmlns="http://www.w3.org/2000/svg" width="1000" height="175" viewBox="0 0 1000 175">
  <rect width="1000" height="175" fill="#080808"/>
  <rect y="0" width="1000" height="1.5" fill="#151515"/>
  <rect y="173.5" width="1000" height="1.5" fill="#151515"/>
  
  <!-- Top emblem - AY YILDIZ -->
  <g opacity="0.97">
    <circle cx="492" cy="29.5" r="13.2" fill="#B8A07A"/>
    <circle cx="498.5" cy="29.5" r="10.4" fill="#080808"/>
    <polygon points="514.5,21.5 516.1,26.8 521.7,26.8 517.2,29.9 518.5,35.1 514.5,32.2 510.5,35.1 511.8,29.9 507.3,26.8 512.9,26.8" fill="#B8A07A"/>
  </g>


  <!-- LEFT WING - taller on Y -->
  <g fill="#141414" stroke="#252525" stroke-width="0.85" stroke-linejoin="miter" opacity="0.98">
    <path d="M 386 106 L 316 79 L 307 82.8 L 252 66 L 242 69.8 L 194 54.5 L 183 58.5 L 141 46.5 L 128 50.5 L 98 40.5 L 88 45 L 120 62 L 131 59.5 L 171 75.5 L 182 73 L 222 89 L 233 86.5 L 273 102.5 L 284 100 L 328 118 L 339 115.2 L 386 121.5 Z"/>
    <path d="M 316 79 L 339 115.2" stroke="#1C1C1C" stroke-width="0.6" opacity="0.95"/>
    <path d="M 252 66 L 273 102.5" stroke="#1C1C1C" stroke-width="0.6" opacity="0.95"/>
    <path d="M 194 54.5 L 222 89" stroke="#1C1C1C" stroke-width="0.6" opacity="0.95"/>
    <path d="M 141 46.5 L 171 75.5" stroke="#1C1C1C" stroke-width="0.6" opacity="0.95"/>
    <path d="M 98 40.5 L 131 59.5" stroke="#1C1C1C" stroke-width="0.55" opacity="0.85"/>
    <path d="M 88 45 L 120 62 L 131 59.5 L 98 40.5" fill="#1E1E1E" stroke="none" opacity="0.55"/>
    <path d="M 128 50.5 L 171 75.5 L 182 73 L 141 46.5" fill="#1E1E1E" stroke="none" opacity="0.5"/>
    <path d="M 183 58.5 L 222 89 L 233 86.5 L 194 54.5" fill="#1E1E1E" stroke="none" opacity="0.45"/>
    <path d="M 242 69.8 L 273 102.5 L 284 100 L 252 66" fill="#191919" stroke="none" opacity="0.4"/>
  </g>

  <!-- RIGHT WING - taller -->
  <g fill="#141414" stroke="#252525" stroke-width="0.85" stroke-linejoin="miter" opacity="0.98">
    <path d="M 614 106 L 684 79 L 693 82.8 L 748 66 L 758 69.8 L 806 54.5 L 817 58.5 L 859 46.5 L 872 50.5 L 902 40.5 L 912 45 L 880 62 L 869 59.5 L 829 75.5 L 818 73 L 778 89 L 767 86.5 L 727 102.5 L 716 100 L 672 118 L 661 115.2 L 614 121.5 Z"/>
    <path d="M 684 79 L 661 115.2" stroke="#1C1C1C" stroke-width="0.6" opacity="0.95"/>
    <path d="M 748 66 L 727 102.5" stroke="#1C1C1C" stroke-width="0.6" opacity="0.95"/>
    <path d="M 806 54.5 L 778 89" stroke="#1C1C1C" stroke-width="0.6" opacity="0.95"/>
    <path d="M 859 46.5 L 829 75.5" stroke="#1C1C1C" stroke-width="0.6" opacity="0.95"/>
    <path d="M 902 40.5 L 869 59.5" stroke="#1C1C1C" stroke-width="0.55" opacity="0.85"/>
    <path d="M 912 45 L 880 62 L 869 59.5 L 902 40.5" fill="#1E1E1E" stroke="none" opacity="0.55"/>
    <path d="M 872 50.5 L 829 75.5 L 818 73 L 859 46.5" fill="#1E1E1E" stroke="none" opacity="0.5"/>
    <path d="M 817 58.5 L 778 89 L 767 86.5 L 806 54.5" fill="#1E1E1E" stroke="none" opacity="0.45"/>
    <path d="M 758 69.8 L 727 102.5 L 716 100 L 748 66" fill="#191919" stroke="none" opacity="0.4"/>
  </g>

  <!-- Stars - 1px up from too low -->
  <g fill="#B8A07A">
    <polygon points="205,61 207.2,68 214.5,68 208.6,72 210.3,78.8 205,74.9 199.7,78.8 201.4,72 195.5,68 202.8,68"/>
    <polygon points="231,68 233.2,75 240.5,75 234.6,79 236.3,85.8 231,81.9 225.7,85.8 227.4,79 221.5,75 228.8,75"/>
    <polygon points="257,75 259.2,82 266.5,82 260.6,86 262.3,92.8 257,88.9 251.7,92.8 253.4,86 247.5,82 254.8,82"/>
    <polygon points="283,82 285.2,89 292.5,89 286.6,93 288.3,99.8 283,95.9 277.7,99.8 279.4,93 273.5,89 280.8,89"/>
    <polygon points="717,82 719.2,89 726.5,89 720.6,93 722.3,99.8 717,95.9 711.7,99.8 713.4,93 707.5,89 714.8,89"/>
    <polygon points="743,75 745.2,82 752.5,82 746.6,86 748.3,92.8 743,88.9 737.7,92.8 739.4,86 733.5,82 740.8,82"/>
    <polygon points="769,68 771.2,75 778.5,75 772.6,79 774.3,85.8 769,81.9 763.7,85.8 765.4,79 759.5,75 766.8,75"/>
    <polygon points="795,61 797.2,68 804.5,68 798.6,72 800.3,78.8 795,74.9 789.7,78.8 791.4,72 785.5,68 792.8,68"/>
  </g>

  <text x="500" y="103" text-anchor="middle" font-family="Georgia, 'Times New Roman', serif" font-size="30" letter-spacing="7.5" fill="#EAE8E0" font-weight="400">YUSIF MURADLI</text>
  
  <rect x="445" y="115" width="110" height="0.9" fill="#1E1E1E"/>
  <rect x="485" y="115" width="30" height="0.9" fill="#B8A07A" opacity="0.9"/>
</svg>
